<?xml version="1.0" encoding="UTF-8" standalone="no"?>
<!-- Created with Inkscape (http://www.inkscape.org/) -->

<svg
   xmlns:dc="http://purl.org/dc/elements/1.1/"
   xmlns:cc="http://creativecommons.org/ns#"
   xmlns:rdf="http://www.w3.org/1999/02/22-rdf-syntax-ns#"
   xmlns:svg="http://www.w3.org/2000/svg"
   xmlns="http://www.w3.org/2000/svg"
   xmlns:sodipodi="http://sodipodi.sourceforge.net/DTD/sodipodi-0.dtd"
   xmlns:inkscape="http://www.inkscape.org/namespaces/inkscape"
   width="400mm"
   height="200mm"
   viewBox="0 0 400 200"
   version="1.1"
   id="svg8"
   inkscape:version="0.92.3 (2405546, 2018-03-11)"
   sodipodi:docname="dibujo.svg">
  <defs
     id="defs2">
    <inkscape:perspective
       sodipodi:type="inkscape:persp3d"
       inkscape:vp_x="-181.21482 : 141.23804 : 1"
       inkscape:vp_y="0 : 496.82414 : 0"
       inkscape:vp_z="-76.867295 : 141.23804 : 1"
       inkscape:persp3d-origin="-129.04098 : 124.67723 : 1"
       id="perspective3744" />
  </defs>
  <sodipodi:namedview
     id="base"
     pagecolor="#ffffff"
     bordercolor="#666666"
     borderopacity="1.0"
     inkscape:pageopacity="0.0"
     inkscape:pageshadow="2"
     inkscape:zoom="0.35"
     inkscape:cx="400"
     inkscape:cy="255.07625"
     inkscape:document-units="mm"
     inkscape:current-layer="layer1"
     showgrid="false"
     inkscape:window-width="1366"
     inkscape:window-height="705"
     inkscape:window-x="-8"
     inkscape:window-y="-8"
     inkscape:window-maximized="1" />
  <metadata
     id="metadata5">
    <rdf:RDF>
      <cc:Work
         rdf:about="">
        <dc:format>image/svg+xml</dc:format>
        <dc:type
           rdf:resource="http://purl.org/dc/dcmitype/StillImage" />
        <dc:title></dc:title>
      </cc:Work>
    </rdf:RDF>
  </metadata>
  <g
     inkscape:label="Capa 1"
     inkscape:groupmode="layer"
     id="layer1"
     transform="translate(0,-97)">
    <ellipse
       id="path3724"
       cx="-143.35165"
       cy="148.35692"
       rx="15.776326"
       ry="15.398592"
       style="fill:#800080;stroke-width:0.14170572" />
    <ellipse
       id="path3724-0"
       cx="-120.47623"
       cy="148.61984"
       rx="15.776327"
       ry="15.586379"
       style="fill:#800080;stroke-width:0.14256716" />
    <g
       sodipodi:type="inkscape:box3d"
       id="g3774"
       style="fill:#800080"
       inkscape:perspectiveID="#perspective3744"
       inkscape:corner0="0.48526892 : -0.021097685 : 0 : 1"
       inkscape:corner7="0.48526891 : -0.021097685 : 0.25 : 1">
      <path
         sodipodi:type="inkscape:box3dside"
         id="path3776"
         style="fill:#353564;fill-rule:evenodd;stroke:none;stroke-width:0.50912809;stroke-linejoin:round"
         inkscape:box3dsidetype="6"
         d="m -146.08728,173.9692 v 0 l 9.97251,-2.62311 v 0 z"
         points="-146.08728,173.9692 -136.11477,171.34609 -136.11477,171.34609 -146.08728,173.9692 " />
      <path
         sodipodi:type="inkscape:box3dside"
         id="path3784"
         style="fill:#afafde;fill-rule:evenodd;stroke:none;stroke-width:0.50912809;stroke-linejoin:round"
         inkscape:box3dsidetype="13"
         d="m -146.08728,173.9692 0,0 9.97251,-2.62311 0,0 z"
         points="-146.08728,173.9692 -136.11477,171.34609 -136.11477,171.34609 -146.08728,173.9692 " />
      <path
         sodipodi:type="inkscape:box3dside"
         id="path3786"
         style="fill:#e9e9ff;fill-rule:evenodd;stroke:none;stroke-width:0.50912809;stroke-linejoin:round"
         inkscape:box3dsidetype="11"
         d="m -136.11477,171.34609 0,0 v 0 l 0,0 z"
         points="-136.11477,171.34609 -136.11477,171.34609 -136.11477,171.34609 -136.11477,171.34609 " />
      <path
         sodipodi:type="inkscape:box3dside"
         id="path3778"
         style="fill:#4d4d9f;fill-rule:evenodd;stroke:none;stroke-width:0.50912809;stroke-linejoin:round"
         inkscape:box3dsidetype="5"
         d="m -146.08728,173.9692 0,0 9.97251,-2.62311 0,0 z"
         points="-146.08728,173.9692 -136.11477,171.34609 -136.11477,171.34609 -146.08728,173.9692 " />
      <path
         sodipodi:type="inkscape:box3dside"
         id="path3782"
         style="fill:#d7d7ff;fill-rule:evenodd;stroke:none;stroke-width:0.50912809;stroke-linejoin:round"
         inkscape:box3dsidetype="14"
         d="m -146.08728,173.9692 v 0 l 9.97251,-2.62311 v 0 z"
         points="-146.08728,173.9692 -136.11477,171.34609 -136.11477,171.34609 -146.08728,173.9692 " />
      <path
         sodipodi:type="inkscape:box3dside"
         id="path3780"
         style="fill:#8686bf;fill-rule:evenodd;stroke:none;stroke-width:0.50912809;stroke-linejoin:round"
         inkscape:box3dsidetype="3"
         d="m -146.08728,173.9692 0,0 v 0 l 0,0 z"
         points="-146.08728,173.9692 -146.08728,173.9692 -146.08728,173.9692 -146.08728,173.9692 " />
    </g>
    <rect
       style="fill:#800080;stroke-width:0.15792309"
       id="rect3788"
       width="31.144705"
       height="31.573158"
       x="-222.17833"
       y="-3.7783668"
       ry="0"
       transform="matrix(0.67731731,-0.73569101,0.68462165,0.72889862,0,0)" />
    <path
       style="fill:#ffffff;fill-opacity:1;stroke-width:0.40203395"
       d="m -131.45631,183.71418 c -14.65323,-16.96479 -14.74983,-17.12112 -14.74983,-23.87126 0,-3.96497 0.0963,-4.51421 1.22636,-6.99204 1.51373,-3.31917 4.46266,-6.46349 7.5292,-8.02806 2.09398,-1.06837 2.65555,-1.16729 6.62636,-1.16729 3.97046,0 4.5129,0.0955 6.39457,1.1262 1.13085,0.61941 2.66289,1.6798 3.40454,2.3564 0.74165,0.67659 1.47907,1.23018 1.63873,1.23018 0.15964,0 0.92679,-0.5807 1.70477,-1.29044 0.77797,-0.70973 2.39876,-1.77012 3.60174,-2.35639 1.89903,-0.9255 2.70695,-1.06595 6.13132,-1.06595 3.56567,0 4.17113,0.11566 6.31053,1.2055 6.458969,3.29028 10.190029,10.86681 8.917079,18.10759 -0.60375,3.43417 -2.00977,6.35787 -4.44536,9.24371 -1.01135,1.19831 -6.295779,7.48062 -11.743169,13.96069 -5.44739,6.48008 -9.98132,11.78196 -10.0754,11.78196 -0.0941,0 -5.70622,-6.40836 -12.47144,-14.2408 z"
       id="path3803"
       inkscape:connector-curvature="0" />
    <path
       style="fill:#f03030;fill-opacity:1;stroke-width:0.38487661"
       d="m -144.33273,133.04854 c 0.28471,-0.10849 0.62489,-0.0951 0.75595,0.0297 0.13105,0.1248 -0.10189,0.21357 -0.51767,0.19726 -0.45946,-0.018 -0.55292,-0.10702 -0.23828,-0.22691 z"
       id="path3805"
       inkscape:connector-curvature="0" />
    <flowRoot
       xml:space="preserve"
       id="flowRoot3811"
       style="fill:black;fill-opacity:1;stroke:none;font-family:sans-serif;font-style:normal;font-weight:normal;font-size:40px;line-height:1.25;letter-spacing:0px;word-spacing:0px"><flowRegion
         id="flowRegion3813"><rect
           id="rect3815"
           width="231.42857"
           height="342.85715"
           x="891.42859"
           y="393.04837" /></flowRegion><flowPara
         id="flowPara3817"></flowPara></flowRoot>    <flowRoot
       xml:space="preserve"
       id="flowRoot3819"
       style="fill:black;fill-opacity:1;stroke:none;font-family:sans-serif;font-style:normal;font-weight:normal;font-size:40px;line-height:1.25;letter-spacing:0px;word-spacing:0px"><flowRegion
         id="flowRegion3821"><rect
           id="rect3823"
           width="94.285713"
           height="125.71429"
           x="728.57141"
           y="384.47696" /></flowRegion><flowPara
         id="flowPara3825"></flowPara></flowRoot>    <rect
       style="fill:#f03030;fill-opacity:1;stroke-width:0.29320842"
       id="rect3827"
       width="262.31546"
       height="167.82143"
       x="0.75595003"
       y="97.428589" />
  </g>
</svg>
